<?xml version="1.0" encoding="UTF-8" standalone="no"?>
<svg
   version="1.0"
   width="705.000000pt"
   height="603.000000pt"
   viewBox="0 0 705.000000 603.000000"
   preserveAspectRatio="xMidYMid meet"
   id="svg1"
   xmlns="http://www.w3.org/2000/svg"
   xmlns:svg="http://www.w3.org/2000/svg">
  <defs
     id="defs1" />
  <g
     transform="matrix(0.1,0,0,-0.1,-56.211864,633.66102)"
     fill="#012af4"
     stroke="none"
     id="g1">
    <path
       d="m 4167,5777 c -82,-46 -91,-63 -97,-187 l -5,-105 -135,-6 c -74,-3 -166,-11 -205,-18 -38,-7 -106,-19 -150,-28 -44,-8 -102,-27 -130,-41 -43,-23 -55,-37 -86,-97 -20,-39 -48,-109 -64,-155 -26,-78 -34,-92 -109,-169 -109,-114 -384,-398 -530,-548 -65,-67 -123,-130 -130,-140 -31,-49 -51,-140 -51,-238 0,-94 2,-103 29,-143 16,-23 56,-60 89,-82 88,-59 150,-75 287,-74 105,0 122,3 190,31 133,55 305,53 350,-4 24,-31 26,-70 3,-103 -149,-223 -169,-245 -353,-400 -104,-87 -246,-218 -307,-283 -77,-83 -122,-164 -161,-292 -44,-141 -69,-185 -124,-215 -74,-41 -113,-76 -329,-302 l -205,-213 -28,-115 c -39,-155 -49,-396 -20,-486 26,-82 94,-168 184,-231 41,-29 94,-69 117,-88 l 41,-35 h 324 324 l 26,27 c 39,41 70,143 75,248 11,201 -46,258 -312,310 -86,17 -105,31 -105,77 0,65 55,124 142,155 46,16 85,18 303,18 218,-1 264,-4 364,-23 114,-23 286,-72 416,-118 39,-14 112,-39 163,-56 51,-16 99,-37 107,-45 8,-8 15,-31 15,-51 0,-64 62,-357 85,-401 28,-55 178,-147 221,-137 85,22 180,200 185,350 3,68 16,81 65,67 54,-15 186,-13 266,4 102,21 187,61 388,182 102,61 223,130 270,153 222,111 448,249 502,306 14,16 37,54 51,85 14,31 43,84 65,119 31,46 42,76 47,119 4,31 14,94 23,141 11,59 16,144 16,280 1,198 0,203 -49,418 -30,128 -202,445 -371,682 -90,126 -131,169 -214,223 -30,20 -71,50 -90,66 -49,41 -490,264 -577,291 -95,31 -133,65 -133,120 0,64 33,114 169,255 186,193 241,287 241,412 0,90 -16,107 -170,187 l -133,68 -208,-3 c -237,-4 -223,-9 -254,81 -24,71 -76,150 -113,173 -49,28 -126,22 -195,-16 z m -119,-862 c 9,-8 14,-45 15,-115 l 2,-103 -60,-26 c -54,-23 -74,-25 -190,-26 -136,0 -183,9 -229,46 -51,40 -26,77 74,110 68,22 120,58 120,83 0,7 8,21 18,32 17,18 29,19 128,16 70,-3 114,-8 122,-17 z m 593,-1203 c 132,-47 178,-75 262,-153 86,-81 89,-104 15,-112 -48,-6 -161,5 -213,19 -71,20 -187,70 -194,83 -8,14 -16,151 -12,189 2,19 28,14 142,-26 z m -990,-776 c 42,-32 108,-56 193,-71 79,-13 150,-48 202,-97 55,-52 72,-94 53,-130 -10,-19 -17,-20 -78,-14 -37,3 -87,12 -111,20 -25,7 -83,22 -130,31 -332,67 -378,100 -315,225 29,58 46,69 101,70 32,0 51,-8 85,-34 z m 1663,-62 c 99,-59 113,-118 57,-237 -29,-62 -31,-72 -20,-105 6,-20 20,-51 30,-68 22,-36 24,-69 6,-101 -22,-40 -77,-93 -102,-99 -14,-3 -117,-4 -228,-2 -193,4 -205,5 -259,30 -59,27 -88,64 -88,111 0,15 24,51 65,98 36,41 108,127 160,191 94,115 171,192 210,209 38,17 117,4 169,-27 z"
       id="path1" />
  </g>
</svg>
